<?xml version="1.0" encoding="UTF-8"?>
<svg xmlns="http://www.w3.org/2000/svg" xmlns:xlink="http://www.w3.org/1999/xlink" id="main_logo_with_white_text" data-name="main logo with white text" viewBox="0 0 1600 234">
  <defs>
    <style>
      .cls-1 {
        fill: url(#New_Gradient_Swatch);
      }

      .cls-2 {
        fill: #fff;
      }
    </style>
    <radialGradient id="New_Gradient_Swatch" data-name="New Gradient Swatch" cx="492.98" cy="882.33" fx="492.98" fy="882.33" r="1.6" gradientTransform="translate(-239668.08 -122042) rotate(90) scale(247.5 -271.76)" gradientUnits="userSpaceOnUse">
      <stop offset="0" stop-color="#ffdda3"></stop>
      <stop offset=".44" stop-color="#eead43"></stop>
      <stop offset="1" stop-color="#d96c1a"></stop>
    </radialGradient>
  </defs>
  <g>
    <path class="cls-2" d="M368.98,105.57l-23.94-4.42c-5.58-1.08-9.68-2.52-12.32-4.3-2.63-1.78-3.95-4.53-3.95-8.25,0-4.03,1.82-7.09,5.46-9.18,3.64-2.09,8.4-3.14,14.29-3.14,6.82,0,12.39,1.74,16.73,5.23,3.79,3.05,6.1,7.06,6.93,12.06.22,1.31,1.43,2.23,2.76,2.23h25.25c1.69,0,3.05-1.48,2.81-3.15-1.1-7.51-3.73-14.13-7.88-19.85-4.73-6.51-11.08-11.51-19.06-14.99-7.98-3.49-17.16-5.23-27.54-5.23s-19.13,1.63-26.72,4.88c-7.59,3.25-13.48,7.82-17.66,13.71-4.18,5.89-6.28,12.71-6.28,20.45,0,9.61,3.17,17.43,9.53,23.47,6.35,6.04,15.11,10.07,26.26,12.08l22.31,4.18c6.04,1.09,10.38,2.64,13.01,4.65,2.63,2.01,3.95,4.96,3.95,8.83,0,4.34-2.09,7.55-6.28,9.65-4.18,2.09-9.45,3.14-15.8,3.14-7.9,0-14.37-1.9-19.41-5.69-4.39-3.31-6.93-7.59-7.61-12.85-.18-1.37-1.39-2.37-2.77-2.37h-25.14c-1.69,0-3.05,1.48-2.81,3.16,1.76,12.31,7.17,22.14,16.25,29.49,9.84,7.98,23.51,11.97,41.02,11.97s31.26-3.79,40.78-11.39c9.53-7.59,14.29-17.81,14.29-30.68,0-8.98-3.06-16.27-9.18-21.85-6.12-5.58-15.22-9.53-27.31-11.85Z"></path>
    <path class="cls-2" d="M520.73,73.5c-5.43-6.66-12.13-11.81-20.1-15.46-7.98-3.64-16.85-5.46-26.61-5.46-11.93,0-22.54,2.75-31.84,8.25-9.3,5.5-16.58,13.05-21.84,22.66-5.27,9.61-7.9,20.61-7.9,33s2.55,24.17,7.67,33.93c5.11,9.76,12.35,17.31,21.73,22.66,9.37,5.34,20.26,8.02,32.65,8.02,15.18,0,27.89-3.87,38.11-11.62,9.3-7.04,15.84-16.65,19.63-28.82.57-1.84-.76-3.72-2.68-3.72h-26.33c-1.2,0-2.24.78-2.66,1.91-1.93,5.14-4.96,9.23-9.11,12.27-4.65,3.41-10.54,5.11-17.66,5.11-6.2,0-11.47-1.55-15.8-4.65-4.34-3.09-7.59-7.59-9.76-13.48-1.1-2.97-1.89-6.31-2.41-9.97-.25-1.72,1.05-3.28,2.79-3.28h82.43c1.42,0,2.65-1.06,2.82-2.46,1.13-9.15.63-17.74-1.5-25.77-2.32-8.75-6.2-16.46-11.62-23.12ZM496.32,104.41h-47.09c-1.81,0-3.15-1.69-2.76-3.46.5-2.29,1.12-4.43,1.87-6.42,2.24-5.96,5.46-10.49,9.65-13.59,4.18-3.1,9.3-4.65,15.34-4.65,7.59,0,13.75,2.52,18.48,7.55,4.13,4.4,6.57,10.19,7.33,17.37.18,1.69-1.11,3.19-2.81,3.19Z"></path>
    <path class="cls-2" d="M619.22,53.58c-8.85.4-17.25,2.62-25.21,6.68-6.07,3.09-11.15,6.98-15.24,11.68-1.73,1.99-4.98.84-4.98-1.8v-12.4c0-1.56-1.26-2.82-2.82-2.82h-24.1c-1.56,0-2.82,1.26-2.82,2.82v118.46c0,1.56,1.26,2.82,2.82,2.82h26.66c1.56,0,2.82-1.26,2.82-2.82v-57.37c0-9.14,1.94-16.15,5.81-21.03,3.87-4.88,9.25-8.06,16.15-9.53,6.12-1.3,13.07-1.79,20.84-1.44,1.61.07,2.98-1.19,2.98-2.81v-27.59c0-1.59-1.32-2.91-2.91-2.84Z"></path>
    <path class="cls-2" d="M750.97,54.91h-26.47c-1.21,0-2.28.77-2.67,1.91l-26.41,77.59c-.87,2.55-4.48,2.55-5.35,0l-26.2-77.58c-.39-1.15-1.46-1.92-2.67-1.92h-28.79c-1.96,0-3.33,1.96-2.65,3.8l43.7,118.46c.41,1.11,1.47,1.85,2.65,1.85h31.39c1.18,0,2.24-.74,2.65-1.85l43.48-118.46c.68-1.84-.69-3.79-2.65-3.79Z"></path>
    <path class="cls-2" d="M857.73,73.5c-5.43-6.66-12.13-11.81-20.1-15.46-7.98-3.64-16.85-5.46-26.61-5.46-11.93,0-22.54,2.75-31.84,8.25-9.3,5.5-16.58,13.05-21.84,22.66-5.27,9.61-7.9,20.61-7.9,33s2.55,24.17,7.67,33.93c5.11,9.76,12.35,17.31,21.73,22.66,9.37,5.34,20.26,8.02,32.65,8.02,15.18,0,27.89-3.87,38.11-11.62,9.3-7.04,15.84-16.65,19.63-28.81.57-1.84-.76-3.72-2.68-3.72h-26.33c-1.2,0-2.24.78-2.66,1.91-1.93,5.14-4.96,9.23-9.11,12.27-4.65,3.41-10.54,5.11-17.66,5.11-6.2,0-11.47-1.55-15.8-4.65-4.34-3.09-7.59-7.59-9.76-13.48-1.1-2.97-1.89-6.31-2.41-9.97-.25-1.72,1.05-3.28,2.79-3.28h82.43c1.42,0,2.65-1.06,2.82-2.46,1.13-9.15.63-17.74-1.5-25.77-2.32-8.75-6.2-16.46-11.62-23.12ZM833.32,104.41h-47.09c-1.81,0-3.15-1.69-2.76-3.46.5-2.29,1.12-4.43,1.87-6.42,2.24-5.96,5.46-10.49,9.65-13.59,4.18-3.1,9.3-4.65,15.34-4.65,7.59,0,13.75,2.52,18.48,7.55,4.13,4.4,6.57,10.19,7.33,17.37.18,1.69-1.11,3.19-2.81,3.19Z"></path>
    <path class="cls-2" d="M997.57,54.91h-26.66c-1.56,0-2.82-1.26-2.82-2.82v-3.22c0-4.34,1.36-7.44,4.07-9.3,2.71-1.86,6.23-2.79,10.57-2.79,2.17,0,4.34.16,6.51.47.77.11,1.52.25,2.23.42,1.82.43,3.58-.84,3.58-2.71V15.26c0-1.17-.71-2.25-1.81-2.64-2.17-.78-4.55-1.44-7.13-1.98-3.33-.7-7.01-1.04-11.04-1.04-12.86,0-22.58,3.33-29.17,9.99-6.59,6.66-9.88,16.19-9.88,28.58v3.92c0,1.56-1.26,2.82-2.82,2.82h-19.45c-1.56,0-2.82,1.26-2.82,2.82v22.01c0,1.56,1.26,2.82,2.82,2.82h19.45c1.56,0,2.82,1.26,2.82,2.82v90.8c0,1.56,1.26,2.82,2.82,2.82h26.43c1.56,0,2.82-1.26,2.82-2.82v-90.8c0-1.56,1.26-2.82,2.82-2.82h26.66c1.56,0,2.82-1.26,2.82-2.82v-22.01c0-1.56-1.26-2.82-2.82-2.82Z"></path>
    <path class="cls-2" d="M1088,84.01v-27.59c0-1.59-1.32-2.91-2.91-2.84-8.85.4-17.25,2.62-25.21,6.68-6.07,3.09-11.15,6.98-15.24,11.68-1.73,1.99-4.98.84-4.98-1.8v-12.4c0-1.56-1.26-2.82-2.82-2.82h-24.1c-1.56,0-2.82,1.26-2.82,2.82v118.46c0,1.56,1.26,2.82,2.82,2.82h26.66c1.56,0,2.82-1.26,2.82-2.82v-57.37c0-9.14,1.93-16.15,5.81-21.03,3.87-4.88,9.25-8.06,16.15-9.53,6.12-1.3,13.06-1.79,20.84-1.44,1.61.07,2.98-1.19,2.98-2.81Z"></path>
    <path class="cls-2" d="M1193.74,73.5c-5.42-6.66-12.12-11.81-20.1-15.46-7.98-3.64-16.85-5.46-26.61-5.46-11.93,0-22.54,2.75-31.84,8.25-9.3,5.5-16.58,13.05-21.85,22.66-5.27,9.61-7.9,20.61-7.9,33s2.55,24.17,7.67,33.93c5.11,9.76,12.35,17.31,21.73,22.66,9.37,5.34,20.26,8.02,32.65,8.02,15.18,0,27.89-3.87,38.11-11.62,9.3-7.04,15.84-16.65,19.63-28.81.57-1.84-.76-3.72-2.68-3.72h-26.33c-1.2,0-2.24.78-2.66,1.91-1.93,5.14-4.96,9.23-9.11,12.27-4.65,3.41-10.54,5.11-17.66,5.11-6.2,0-11.47-1.55-15.8-4.65-4.34-3.09-7.59-7.59-9.76-13.48-1.1-2.97-1.89-6.31-2.41-9.97-.25-1.72,1.05-3.28,2.79-3.28h82.43c1.42,0,2.65-1.06,2.82-2.46,1.13-9.15.63-17.74-1.5-25.77-2.32-8.75-6.2-16.46-11.62-23.12ZM1169.33,104.41h-47.08c-1.81,0-3.15-1.69-2.76-3.46.5-2.29,1.12-4.43,1.87-6.42,2.25-5.96,5.46-10.49,9.65-13.59,4.18-3.1,9.3-4.65,15.34-4.65,7.59,0,13.75,2.52,18.48,7.55,4.13,4.4,6.57,10.19,7.33,17.37.18,1.69-1.11,3.19-2.81,3.19Z"></path>
    <rect class="cls-2" x="1216.51" y="54.91" width="32.3" height="124.1" rx="2.82" ry="2.82"></rect>
    <path class="cls-2" d="M1374.97,54.91h-23.87c-1.56,0-2.82,1.26-2.82,2.82v6.21c0,2.57-3.11,3.76-4.88,1.9-3.39-3.56-7.18-6.39-11.39-8.49-6.36-3.17-13.71-4.76-22.08-4.76-10.22,0-19.25,2.56-27.07,7.67-7.82,5.11-13.94,12.24-18.36,21.38-4.41,9.14-6.62,19.75-6.62,31.84s2.32,22.04,6.97,31.26c4.65,9.22,11,16.46,19.05,21.73,8.06,5.27,17.12,7.9,27.19,7.9,7.59,0,14.41-1.66,20.45-5,3.53-1.94,6.61-4.32,9.24-7.14,1.78-1.9,4.94-.76,4.94,1.85v9.59c0,8.98-2.29,15.81-6.85,20.45-4.57,4.65-11.35,6.97-20.34,6.97-7.75,0-13.79-1.82-18.13-5.46-3.86-3.24-6.31-7.85-7.35-13.84-.24-1.36-1.47-2.31-2.84-2.31h-25.58c-1.64,0-2.98,1.4-2.82,3.04.83,8.19,3.39,15.43,7.67,21.71,4.8,7.05,11.46,12.47,19.99,16.27,8.52,3.79,18.28,5.69,29.28,5.69,18.44,0,32.89-4.69,43.34-14.06,10.46-9.38,15.69-22.35,15.69-38.93V57.73c0-1.56-1.26-2.82-2.82-2.82ZM1342,130.9c-2.32,4.96-5.58,8.8-9.76,11.51-4.18,2.71-9.14,4.06-14.87,4.06-8.22,0-14.8-2.98-19.75-8.95-4.96-5.96-7.44-13.98-7.44-24.05s2.48-18.09,7.44-24.05c4.96-5.96,11.54-8.95,19.75-8.95s15.34,3.02,20.45,9.06c5.11,6.04,7.67,14.1,7.67,24.17,0,6.51-1.16,12.24-3.49,17.2Z"></path>
    <path class="cls-2" d="M1458.97,52.59c-8.22,0-15.15,1.67-20.8,5-3.6,2.13-6.91,4.74-9.91,7.83-1.77,1.82-4.84.6-4.84-1.94V14.97c0-1.56-1.26-2.82-2.82-2.82h-26.66c-1.56,0-2.82,1.26-2.82,2.82v161.22c0,1.56,1.26,2.82,2.82,2.82h26.66c1.56,0,2.82-1.26,2.82-2.82v-64.8c0-6.82,1.04-12.43,3.14-16.85s4.96-7.74,8.6-9.99c3.64-2.24,7.63-3.37,11.97-3.37,7.28,0,12.74,2.44,16.38,7.32,3.64,4.88,5.46,11.97,5.46,21.26v66.43c0,1.56,1.26,2.82,2.82,2.82h26.43c1.56,0,2.82-1.26,2.82-2.82v-77.36c0-14.87-3.87-26.3-11.62-34.28-7.75-7.98-17.9-11.97-30.44-11.97Z"></path>
    <path class="cls-2" d="M1596.5,54.91h-29.91c-1.56,0-2.82-1.26-2.82-2.82v-31.07c0-1.56-1.26-2.82-2.82-2.82h-26.43c-1.56,0-2.82,1.26-2.82,2.82v31.07c0,1.56-1.26,2.82-2.82,2.82h-19.45c-1.56,0-2.82,1.26-2.82,2.82v22.01c0,1.56,1.26,2.82,2.82,2.82h19.45c1.56,0,2.82,1.26,2.82,2.82v53.42c0,9.14,1.7,16.93,5.11,23.36,3.41,6.43,8.25,11.24,14.53,14.41,6.28,3.17,13.59,4.76,21.96,4.76,4.8,0,9.18-.43,13.13-1.28,3.41-.73,6.79-1.9,10.14-3.5.98-.47,1.6-1.49,1.6-2.57v-21.93c0-1.95-1.93-3.35-3.75-2.66-1.16.44-2.39.82-3.69,1.15-2.79.7-5.73,1.04-8.83,1.04-5.74,0-10.19-1.58-13.36-4.76-3.18-3.17-4.76-8.33-4.76-15.46v-45.98c0-1.56,1.26-2.82,2.82-2.82h29.91c1.56,0,2.82-1.26,2.82-2.82v-22.01c0-1.56-1.26-2.82-2.82-2.82Z"></path>
    <path class="cls-2" d="M1246.58,5.04l-8.37-4.83c-3.43-1.98-7.66-1.98-11.09,0l-8.37,4.83c-3.43,1.98-5.54,5.64-5.54,9.6v9.67c0,3.96,2.11,7.62,5.54,9.6l8.37,4.84c3.43,1.98,7.66,1.98,11.09,0l8.37-4.84c3.43-1.98,5.54-5.64,5.54-9.6v-9.67c0-3.96-2.11-7.62-5.54-9.6Z"></path>
  </g>
  <g>
    <path class="cls-1" d="M188.66,39.31l-53.66-30.98c-16.63-9.63-37.14-9.63-53.77,0l-53.65,30.98C10.92,48.91.67,66.66.67,85.88v61.97c0,19.2,10.25,36.97,26.9,46.56l53.65,30.99c16.63,9.6,37.14,9.6,53.77,0l53.66-30.99c16.65-9.6,26.89-27.36,26.89-46.56v-61.97c0-19.22-10.24-36.97-26.89-46.57ZM102.98,183.57c0,3.11-3.37,5.06-6.06,3.5l-9.03-5.23c-3.19-1.85-5.14-5.22-5.14-8.9v-7.53c0-3.66-1.96-7.05-5.14-8.9l-18.32-10.58c-10.88-6.27-17.57-17.88-17.57-30.42v-24.2c0-12.71,8.96-17.99,11.12-19.22,2.14-1.24,4.03.25,4.03,2.32v25.62c.21,10.71,6.05,20.58,15.32,25.94l20.51,11.85c6.36,3.68,10.28,10.45,10.28,17.78v27.96ZM97.84,129.04l-20.53-11.87c-6.38-3.68-10.29-10.47-10.29-17.8v-23.72c0-7.35,3.91-14.12,10.29-17.78l20.53-11.87c6.36-3.68,14.18-3.68,20.54,0l20.56,11.87c6.35,3.66,10.28,10.44,10.28,17.78v23.72c0,7.34-3.93,14.12-10.28,17.8l-20.56,11.87c-6.36,3.66-14.18,3.66-20.54,0ZM174.51,115.53c0,12.54-6.71,24.15-17.58,30.42l-18.31,10.58c-3.19,1.85-5.14,5.24-5.14,8.9v7.53c0,3.68-1.96,7.05-5.13,8.9l-9.05,5.23c-2.69,1.56-6.06-.39-6.06-3.5v-27.96c0-7.34,3.93-14.1,10.28-17.78l20.52-11.85c9.27-5.36,15.1-15.23,15.31-25.94v-25.62c0-2.07,1.89-3.56,4.03-2.32,2.16,1.23,11.13,6.52,11.13,19.22v24.2Z"></path>
    <path class="cls-2" d="M174.72,91.4v24.21c0,12.54-6.71,24.16-17.59,30.43l-18.32,10.58c-3.19,1.85-5.14,5.24-5.14,8.9v7.53c0,3.68-1.96,7.05-5.13,8.9l-9.05,5.23c-2.69,1.56-6.06-.39-6.06-3.5v-27.97c0-7.34,3.93-14.11,10.28-17.79l20.53-11.85c9.27-5.36,15.11-15.24,15.32-25.95v-25.63c0-2.07,1.89-3.56,4.03-2.32,2.16,1.23,11.13,6.52,11.13,19.23Z"></path>
    <path class="cls-2" d="M103.16,155.71v27.97c0,3.11-3.37,5.06-6.06,3.5l-9.03-5.23c-3.19-1.85-5.14-5.22-5.14-8.9v-7.53c0-3.66-1.96-7.05-5.14-8.9l-18.33-10.58c-10.88-6.27-17.58-17.89-17.58-30.43v-24.21c0-12.71,8.96-18,11.12-19.23,2.14-1.24,4.03.25,4.03,2.32v25.63c.21,10.71,6.05,20.59,15.33,25.95l20.52,11.85c6.36,3.68,10.28,10.45,10.28,17.79Z"></path>
    <path class="cls-2" d="M149.42,75.71v23.73c0,7.34-3.93,14.13-10.28,17.81l-20.57,11.87c-6.36,3.66-14.19,3.66-20.55,0l-20.54-11.87c-6.38-3.68-10.29-10.47-10.29-17.81v-23.73c0-7.35,3.91-14.13,10.29-17.79l20.54-11.87c6.36-3.68,14.19-3.68,20.55,0l20.57,11.87c6.35,3.66,10.28,10.44,10.28,17.79Z"></path>
  </g>
</svg>
